<svg xmlns="http://www.w3.org/2000/svg" width="12" height="13" viewBox="0 0 12 13" fill="none">
  <path fill-rule="evenodd" clip-rule="evenodd" d="M5.33308 3.70597L5.06153 1.08745C4.96455 0.628402 4.30507 0.628402 4.20808 1.08745L3.93653 3.70597C3.76197 4.55941 3.08956 5.23182 2.23611 5.40639L0.910693 5.67794C0.451644 5.77492 0.451644 6.4344 0.910693 6.53138L2.23611 6.80293C3.08956 6.9775 3.76197 7.64991 3.93653 8.50335L4.20808 11.1219C4.30507 11.5809 4.96455 11.5809 5.06153 11.1219L5.33308 8.50335C5.50765 7.64991 6.18005 6.9775 7.0335 6.80293L8.35892 6.53138C8.81797 6.4344 8.81797 5.77492 8.35892 5.67794L7.0335 5.40639C6.18005 5.23182 5.50765 4.55941 5.33308 3.70597Z" fill="black" fill-opacity="0.8"/>
  <path fill-rule="evenodd" clip-rule="evenodd" d="M9.54824 8.65215L9.39953 7.91509C9.35427 7.64354 8.96635 7.64354 8.92109 7.91509L8.77238 8.65215C8.6754 9.12413 8.3004 9.49913 7.82842 9.59611L7.09136 9.74482C6.81981 9.79008 6.81981 10.178 7.09136 10.2233L7.82842 10.372C8.3004 10.469 8.6754 10.8439 8.77238 11.3159L8.92109 12.053C8.96635 12.3245 9.35427 12.3245 9.39953 12.053L9.54824 11.3159C9.64522 10.8439 10.0202 10.469 10.4922 10.372L11.2293 10.2233C11.5008 10.178 11.5008 9.79008 11.2293 9.74482L10.4922 9.59611C10.0202 9.49913 9.64522 9.12413 9.54824 8.65215Z" fill="black" fill-opacity="0.8"/>
</svg>