<svg xmlns="http://www.w3.org/2000/svg" width="60" height="60" viewBox="0 0 60 60" fill="none">
  <path d="M40.7875 13.125H35.3C34.2 8.825 30.2875 5.625 25.65 5.625H16.85C11.35 5.625 6.875 10.1 6.875 15.6V21.05C6.075 22.775 5.625 24.6875 5.625 26.7125V40.7875C5.625 48.275 11.725 54.375 19.2125 54.375H40.7875C48.275 54.375 54.375 48.275 54.375 40.7875V26.7125C54.375 19.225 48.275 13.125 40.7875 13.125ZM16.85 9.375H25.65C28.2 9.375 30.4 10.925 31.35 13.125H19.2C15.95 13.125 12.9625 14.275 10.6125 16.1875V15.5875C10.6125 12.15 13.4 9.3625 16.8375 9.3625L16.85 9.375ZM50.625 40.7875C50.625 46.2125 46.2125 50.625 40.7875 50.625H19.2125C13.7875 50.625 9.375 46.2125 9.375 40.7875V26.7125C9.375 21.2875 13.7875 16.875 19.2125 16.875H40.7875C46.2125 16.875 50.625 21.2875 50.625 26.7125V40.7875Z" fill="black"/>
  <path d="M27.362 29.7899C27.362 30.5483 27.7773 31.2343 28.4544 31.5774L31.1717 32.9586C32.0564 33.41 32.7695 34.1232 33.2209 35.0079L34.6021 37.7251C34.9452 38.4022 35.6313 38.8175 36.3896 38.8175C37.1479 38.8175 37.834 38.4022 38.177 37.7251L39.5582 35.0079C40.0096 34.1232 40.7228 33.41 41.6075 32.9586L44.3248 31.5774C45.0018 31.2343 45.4171 30.5483 45.4171 29.7899C45.4171 29.0316 45.0018 28.3455 44.3248 28.0025L41.6075 26.6213C40.7228 26.1699 40.0096 25.4567 39.5582 24.572L38.177 21.8547C37.834 21.1777 37.1479 20.7624 36.3896 20.7624C35.6313 20.7624 34.9452 21.1777 34.6021 21.8547L33.2209 24.572C32.7695 25.4567 32.0564 26.1699 31.1717 26.6213L28.4544 28.0025C27.7773 28.3455 27.362 29.0316 27.362 29.7899ZM32.3994 29.0316C33.7987 28.3185 34.9181 27.199 35.6313 25.7998L36.3896 24.3102L37.1479 25.7998C37.8611 27.199 38.9805 28.3185 40.3797 29.0316L41.8693 29.7899L40.3797 30.5483C38.9805 31.2614 37.8611 32.3808 37.1479 33.7801L36.3896 35.2697L35.6313 33.7801C34.9181 32.3808 33.7987 31.2614 32.3994 30.5483L30.9099 29.7899L32.3994 29.0316Z" fill="black"/>
  <path d="M23.75 38.125H20C18.9625 38.125 18.125 38.9625 18.125 40C18.125 41.0375 18.9625 41.875 20 41.875H23.75C24.7875 41.875 25.625 41.0375 25.625 40C25.625 38.9625 24.7875 38.125 23.75 38.125Z" fill="black"/>
</svg>