<svg xmlns="http://www.w3.org/2000/svg" width="60" height="61" viewBox="0 0 60 61" fill="none">
  <path d="M29.3752 18.4644C29.3752 19.5144 29.9502 20.4644 30.8877 20.9394L34.6502 22.8519C35.8752 23.4769 36.8627 24.4644 37.4877 25.6894L39.4002 29.4519C39.8752 30.3894 40.8252 30.9644 41.8752 30.9644C42.9252 30.9644 43.8752 30.3894 44.3502 29.4519L46.2627 25.6894C46.8877 24.4644 47.8752 23.4769 49.1002 22.8519L52.8627 20.9394C53.8002 20.4644 54.3752 19.5144 54.3752 18.4644C54.3752 17.4144 53.8002 16.4644 52.8627 15.9894L49.1002 14.0769C47.8752 13.4519 46.8877 12.4644 46.2627 11.2394L44.3502 7.47686C43.8752 6.53936 42.9252 5.96436 41.8752 5.96436C40.8252 5.96436 39.8752 6.53936 39.4002 7.47686L37.4877 11.2394C36.8627 12.4644 35.8752 13.4519 34.6502 14.0769L30.8877 15.9894C29.9502 16.4644 29.3752 17.4144 29.3752 18.4644ZM36.3502 17.4144C38.2877 16.4269 39.8377 14.8769 40.8252 12.9394L41.8752 10.8769L42.9252 12.9394C43.9127 14.8769 45.4627 16.4269 47.4002 17.4144L49.4627 18.4644L47.4002 19.5144C45.4627 20.5019 43.9127 22.0519 42.9252 23.9894L41.8752 26.0519L40.8252 23.9894C39.8377 22.0519 38.2877 20.5019 36.3502 19.5144L34.2877 18.4644L36.3502 17.4144Z" fill="black"/>
  <path d="M20.0002 24.0894C22.0713 24.0894 23.7502 22.4104 23.7502 20.3394C23.7502 18.2683 22.0713 16.5894 20.0002 16.5894C17.9291 16.5894 16.2502 18.2683 16.2502 20.3394C16.2502 22.4104 17.9291 24.0894 20.0002 24.0894Z" fill="black"/>
  <path d="M52.5002 25.9644C51.4627 25.9644 50.6252 26.8019 50.6252 27.8394V40.3394C50.6252 40.4894 50.6127 40.6394 50.6002 40.7894L45.1127 36.0769C42.5127 33.8394 38.7377 33.8394 36.1377 36.0769L33.2377 38.5769L24.5502 31.1144C21.9502 28.8769 18.1752 28.8769 15.5752 31.1144L9.3877 36.4394V20.3519C9.3877 14.4894 14.1502 9.72686 20.0127 9.72686H32.5127C33.5502 9.72686 34.3877 8.88936 34.3877 7.85186C34.3877 6.81436 33.5502 5.97686 32.5127 5.97686H20.0127C12.0877 5.97686 5.6377 12.4269 5.6377 20.3519V40.3519C5.6377 48.2769 12.0877 54.7269 20.0127 54.7269H40.0127C47.9377 54.7269 54.3877 48.2769 54.3877 40.3519V27.8519C54.3877 26.8144 53.5502 25.9769 52.5127 25.9769L52.5002 25.9644ZM9.42519 41.3269L18.0127 33.9519C19.2002 32.9269 20.9252 32.9394 22.1002 33.9519L30.3502 41.0394L18.8752 50.9019C13.8627 50.3769 9.88769 46.3519 9.42519 41.3269ZM40.0002 50.9644H24.5627L38.5877 38.9144C39.7752 37.8894 41.5002 37.8894 42.6752 38.9144L49.6002 44.8644C47.9002 48.4644 44.2377 50.9644 40.0002 50.9644Z" fill="black"/>
  <path d="M36.3502 17.4144C38.2877 16.4269 39.8377 14.8769 40.8252 12.9394L41.8752 10.8769L42.9252 12.9394C43.9127 14.8769 45.4627 16.4269 47.4002 17.4144L49.4627 18.4644L47.4002 19.5144C45.4627 20.5019 43.9127 22.0519 42.9252 23.9894L41.8752 26.0519L40.8252 23.9894C39.8377 22.0519 38.2877 20.5019 36.3502 19.5144L34.2877 18.4644L36.3502 17.4144Z" fill="#55F3BE"/>
  <path d="M9.42519 41.3269L18.0127 33.9519C19.2002 32.9269 20.9252 32.9394 22.1002 33.9519L30.3502 41.0394L18.8752 50.9019C13.8627 50.3769 9.88769 46.3519 9.42519 41.3269Z" fill="#55F3BE"/>
</svg>