<svg xmlns="http://www.w3.org/2000/svg" width="100" height="100" viewBox="0 0 100 100" fill="none">
  <path d="M38.9795 24.2915L39.4795 24.5415C41.5003 25.5832 43.1462 27.229 44.1878 29.2498L44.4378 29.7498C45.4378 31.729 48.2712 31.729 49.292 29.7498L49.542 29.2498C50.5837 27.229 52.2295 25.5832 54.2503 24.5415L54.7503 24.2915C56.7295 23.2915 56.7295 20.4582 54.7503 19.4373L54.2503 19.1873C52.2295 18.1457 50.5837 16.4998 49.542 14.479L49.292 13.979C48.292 11.9998 45.4587 11.9998 44.4378 13.979L44.1878 14.479C43.1462 16.4998 41.5003 18.1457 39.4795 19.1873L38.9795 19.4373C37.0003 20.4373 37.0003 23.2707 38.9795 24.2915Z" fill="black"/>
  <path d="M42.917 43.8123C44.9587 42.7707 44.9587 39.8748 42.917 38.8332L39.8753 37.2707C37.167 35.8748 34.9587 33.6665 33.5628 30.9582L32.0003 27.9165C30.9587 25.8748 28.0628 25.8748 27.0212 27.9165L25.4587 30.9582C24.0628 33.6665 21.8545 35.8748 19.1462 37.2707L16.1045 38.8332C14.0628 39.8748 14.0628 42.7707 16.1045 43.8123L19.1462 45.3748C21.8545 46.7707 24.0628 48.979 25.4587 51.6873L27.0212 54.729C28.0628 56.7707 30.9587 56.7707 32.0003 54.729L33.5628 51.6873C34.9587 48.979 37.167 46.7707 39.8753 45.3748L42.917 43.8123Z" fill="black"/>
  <path d="M82.0003 56.2707L78.917 54.6873C75.1878 52.7915 72.2087 49.8123 70.3128 46.0832L68.7295 42.9998C67.3337 40.2498 64.542 38.5415 61.4587 38.5415C58.3753 38.5415 55.5837 40.2498 54.1878 42.9998L52.6045 46.0832C50.7087 49.8123 47.7295 52.7915 44.0003 54.6873L40.917 56.2707C38.167 57.6665 36.4587 60.4582 36.4587 63.5415C36.4587 66.6248 38.167 69.4165 40.917 70.8123L44.0003 72.3957C47.7295 74.2915 50.7087 77.2707 52.6045 80.9998L54.1878 84.0832C55.5837 86.8332 58.3753 88.5415 61.4587 88.5415C64.542 88.5415 67.3337 86.8332 68.7295 84.0832L70.3128 80.9998C72.2087 77.2707 75.1878 74.2915 78.917 72.3957L82.0003 70.8123C84.7503 69.4165 86.4587 66.6248 86.4587 63.5415C86.4587 60.4582 84.7503 57.6665 82.0003 56.2707ZM79.167 65.2498L76.0837 66.8332C71.167 69.3332 67.2503 73.2498 64.7503 78.1665L63.167 81.2498C62.6878 82.1873 61.8128 82.2915 61.4587 82.2915C61.1045 82.2915 60.2295 82.1873 59.7503 81.2498L58.167 78.1665C55.667 73.2498 51.7503 69.3332 46.8337 66.8332L43.7503 65.2498C42.8128 64.7707 42.7087 63.8957 42.7087 63.5415C42.7087 63.1873 42.8128 62.3123 43.7503 61.8332L46.8337 60.2498C51.7503 57.7498 55.667 53.8332 58.167 48.9165L59.7503 45.8332C60.2295 44.8957 61.1045 44.7915 61.4587 44.7915C61.8128 44.7915 62.6878 44.8957 63.167 45.8332L64.7503 48.9165C67.2503 53.8332 71.167 57.7498 76.0837 60.2498L79.167 61.8332C80.1045 62.3123 80.2087 63.1873 80.2087 63.5415C80.2087 63.8957 80.1045 64.7707 79.167 65.2498Z" fill="black"/>
  <path d="M79.167 65.2498L76.0837 66.8332C71.167 69.3332 67.2503 73.2498 64.7503 78.1665L63.167 81.2498C62.6878 82.1873 61.8128 82.2915 61.4587 82.2915C61.1045 82.2915 60.2295 82.1873 59.7503 81.2498L58.167 78.1665C55.667 73.2498 51.7503 69.3332 46.8337 66.8332L43.7503 65.2498C42.8128 64.7707 42.7087 63.8957 42.7087 63.5415C42.7087 63.1873 42.8128 62.3123 43.7503 61.8332L46.8337 60.2498C51.7503 57.7498 55.667 53.8332 58.167 48.9165L59.7503 45.8332C60.2295 44.8957 61.1045 44.7915 61.4587 44.7915C61.8128 44.7915 62.6878 44.8957 63.167 45.8332L64.7503 48.9165C67.2503 53.8332 71.167 57.7498 76.0837 60.2498L79.167 61.8332C80.1045 62.3123 80.2087 63.1873 80.2087 63.5415C80.2087 63.8957 80.1045 64.7707 79.167 65.2498Z" fill="#55F3BE"/>
</svg>