<svg width="22" height="22" viewBox="0 0 22 22" fill="none" xmlns="http://www.w3.org/2000/svg">
    <path
        d="M11.4352 9.1755C12.4076 9.1755 13.1959 9.96377 13.1959 10.9362C13.1959 11.9085 12.4076 12.6968 11.4352 12.6968C10.4628 12.6968 9.67455 11.9085 9.67455 10.9362C9.67455 9.96377 10.4628 9.1755 11.4352 9.1755Z"
        stroke="#686B6E" stroke-width="1.3205" stroke-linecap="round" stroke-linejoin="round" />
    <path
        d="M6.94672 6.31169C6.12234 5.83574 5.06821 6.11819 4.59226 6.94257L4.55551 7.00622C4.07938 7.83091 4.36193 8.88544 5.18663 9.36157L5.40037 9.48497C5.90446 9.77601 6.15323 10.3541 6.15323 10.9362C6.15323 11.5182 5.90446 12.0963 5.40037 12.3873L5.18663 12.5107C4.36194 12.9869 4.07938 14.0414 4.55551 14.8661L4.59226 14.9297C5.06821 15.7541 6.12234 16.0366 6.94672 15.5606L7.16161 15.4366C7.66566 15.1455 8.28654 15.2172 8.79008 15.5091C9.29346 15.8009 9.67455 16.3066 9.67455 16.8884V17.1361C9.67455 18.0877 10.446 18.8591 11.3976 18.8591H11.4728C12.4244 18.8591 13.1959 18.0877 13.1959 17.1361V16.8884C13.1959 16.3066 13.577 15.8009 14.0803 15.5091C14.5839 15.2172 15.2048 15.1455 15.7088 15.4366L15.9237 15.5606C16.7481 16.0366 17.8022 15.7541 18.2782 14.9297L18.3149 14.8661C18.7911 14.0414 18.5085 12.9869 17.6838 12.5107L17.4701 12.3873C16.966 12.0963 16.7172 11.5182 16.7172 10.9362C16.7172 10.3541 16.966 9.77601 17.4701 9.48497L17.6838 9.36157C18.5085 8.88543 18.7911 7.83089 18.3149 7.0062L18.2782 6.94257C17.8022 6.11818 16.7481 5.83573 15.9237 6.31169L15.7088 6.43576C15.2048 6.72677 14.5839 6.6551 14.0803 6.36321C13.577 6.07141 13.1959 5.56572 13.1959 4.98388V4.73623C13.1959 3.78462 12.4244 3.01318 11.4728 3.01318L11.3976 3.01318C10.446 3.01318 9.67455 3.78462 9.67455 4.73623V4.98388C9.67455 5.56572 9.29346 6.07141 8.79008 6.36321C8.28654 6.6551 7.66566 6.72677 7.16161 6.43576L6.94672 6.31169Z"
        stroke="#686B6E" stroke-width="1.3205" stroke-linecap="round" stroke-linejoin="round" />
</svg>